<svg xmlns="http://www.w3.org/2000/svg" xmlns:xlink="http://www.w3.org/1999/xlink" style="display:none;"><symbol id="ico-facebook" viewBox="0 0 32 32"><path d="M18.1 29.5V17.2h4.2l.6-4.8h-4.8v-3c0-1.4.5-2.4 2.4-2.4h2.6V2.6c-.6 0-2.1-.2-3.8-.2-3.6 0-6.2 2.3-6.2 6.3v3.6H8.9v4.8h4.2v12.3h5z" fill-rule="evenodd" clip-rule="evenodd" fill="#fff"/></symbol><symbol id="ico-linkedin" viewBox="0 0 32 32"><path d="M4.4 27.4h5.1V12.1H4.4v15.3zM22 11.7c-2.7 0-4.6 2.6-4.6 2.6v-2.2h-5.1v15.3h5.1v-8.6c0-.4 0-.8.2-1.2.4-1.1 1.4-1.9 2.6-1.9 1.8 0 2.6 1.4 2.6 3.5v8.2h5.1v-8.8c0-4.7-2.5-6.9-5.9-6.9zm-14.6-7H7c-1.5-.1-2.7 1-2.9 2.4-.1 1.5 1 2.8 2.5 2.9H7c1.5.1 2.7-.9 2.9-2.4.2-1.5-1-2.8-2.5-2.9z" fill="#fff"/></symbol><symbol id="ico-twitter" viewBox="0 0 32 32"><path d="M11 27c10.2 0 15.8-8.4 15.8-15.8v-.8c1-.8 2-1.8 2.7-2.9-1 .4-2.1.7-3.2.9 1.1-.7 2-1.8 2.4-3-1.1.6-2.2 1.1-3.4 1.3-1-1.2-2.5-1.8-4.1-1.8-3.1 0-5.5 2.5-5.6 5.6 0 .4 0 .8.2 1.2-4.5-.2-8.6-2.4-11.4-5.9-.5 1-.7 2-.7 3 0 1.8.9 3.6 2.4 4.7-.9 0-1.8-.3-2.6-.8 0 2.7 1.9 4.9 4.5 5.4-.5.1-1 .2-1.5.1-.4 0-.7 0-1.1-.1.8 2.3 2.9 3.8 5.3 3.9-2 1.5-4.4 2.4-6.9 2.4-.5 0-.9 0-1.3-.1C5 26.1 8 27 11 27" fill-rule="evenodd" clip-rule="evenodd" fill="#fff"/></symbol><symbol id="icon-arrow-close" viewBox="0 0 105 105"><style>.st0{fill:#f60}</style><path class="st0" d="M41.4 68.1l1.2-1.6-1.6-1.2-1.2 1.6 1.6 1.2zm-3.2 2.6l.8.6 1.2-1.5-1.6-1.2-1.2 1.5.8.6zm11.4-16.5l1.6 1.2 1-1.3.1.1 1.6-1.2-.2-.3-1.3 1-1.5-1.1-1.3 1.6zM43.9 65l1.2-1.6-1.6-1.2-1.2 1.6 1.6 1.2zm-7.4 9.4l1.2-1.6-1.6-1.2-1.2 1.6 1.6 1.2zm9.8-12.6l1.2-1.6-1.6-1.2-1.2 1.6 1.6 1.2zm2.4-3.2l1.2-1.6-1.6-1.2-1.1 1.6 1.5 1.2zM24 90.1l1.2-1.6-1.6-1.2-1.2 1.6 1.6 1.2zm10-12.5l1.2-1.6-1.6-1.2-1.2 1.5 1.6 1.3zM26.5 87l1.2-1.6-1.6-1.2-1.2 1.6 1.6 1.2zm5-6.3l1.2-1.6-1.6-1.2-1.2 1.6 1.6 1.2zM29 83.8l1.2-1.6-1.6-1.2-1.2 1.6 1.6 1.2zm2.2-56.7l1.6-1.2-1.2-1.6-1.6 1.2 1.2 1.6zM28.7 24l1.6-1.2-1.2-1.6-1.6 1.2 1.2 1.6zm5 6.2l1.6-1.2-1.2-1.6-1.7 1.3 1.3 1.5zm2.5 3.2l1.6-1.2-1.2-1.6-1.6 1.2 1.2 1.6zm-10-12.6l1.6-1.2-1.2-1.6-1.6 1.2 1.2 1.6zm-3.7-4.7l1.2 1.6 1.6-1.2-1.2-1.6-1.6 1.2zm27.1 34.7l1.2 1.6 1.5-1.1 1.3 1 .2-.3-1.6-1.2-.1.1-1-1.3-1.5 1.2zM45.9 46l1.6-1.2-1.2-1.6-1.6 1.2 1.2 1.6zm2.5 3.2L50 48l-1.2-1.6-1.6 1.2 1.2 1.6zm-7.3-9.5l1.6-1.2-1.2-1.6-1.6 1.2 1.2 1.6zm2.4 3.1l1.6-1.2-1.2-1.6-1.6 1.2 1.2 1.6zm-4.9-6.3l1.6-1.2-1.2-1.6-1.5 1.3 1.1 1.5z"/><path class="st0" d="M63.6 36.9l-1.2 1.6 1.6 1.2 1.2-1.6-1.6-1.2zm3.2-2.6l-.8-.6-1.2 1.5 1.6 1.2 1.2-1.5-.8-.6zM55.4 50.8l-1.6-1.2-1 1.3-.1-.1-1.6 1.2.2.3 1.3-1 1.5 1.1 1.3-1.6zM61.1 40l-1.2 1.6 1.6 1.2 1.2-1.6-1.6-1.2zm7.4-9.4l-1.2 1.6 1.6 1.2 1.2-1.6-1.6-1.2zm-9.8 12.6l-1.2 1.6 1.6 1.2 1.2-1.6-1.6-1.2zm-2.4 3.2L55.1 48l1.6 1.2 1.1-1.6-1.5-1.2zM81 14.9l-1.2 1.6 1.6 1.2 1.2-1.6-1.6-1.2zM71 27.4L69.8 29l1.6 1.2 1.2-1.5-1.6-1.3zm7.5-9.4l-1.2 1.6 1.6 1.2 1.2-1.6-1.6-1.2zm-5 6.3l-1.2 1.6 1.6 1.2 1.2-1.6-1.6-1.2zm2.5-3.1l-1.2 1.6 1.6 1.2 1.2-1.6-1.6-1.2zm-2.2 56.7l-1.6 1.2 1.2 1.6 1.6-1.2-1.2-1.6zm2.5 3.1l-1.6 1.2 1.2 1.6 1.6-1.2-1.2-1.6zm-5-6.2L69.7 76l1.2 1.6 1.7-1.3-1.3-1.5zm-2.5-3.2l-1.6 1.2 1.2 1.6 1.6-1.2-1.2-1.6zm10 12.6l-1.6 1.2 1.2 1.6 1.6-1.2-1.2-1.6zm3.7 4.7l-1.2-1.6-1.6 1.2 1.2 1.6 1.6-1.2zM55.4 54.2l-1.2-1.6-1.5 1.1-1.3-1-.2.3 1.6 1.2.1-.1 1 1.3 1.5-1.2zm3.7 4.8l-1.6 1.2 1.2 1.6 1.6-1.2-1.2-1.6zm-2.5-3.2L55 57l1.2 1.6 1.6-1.2-1.2-1.6zm7.3 9.5l-1.6 1.2 1.2 1.6 1.6-1.2-1.2-1.6zm-2.4-3.1l-1.6 1.2 1.2 1.6 1.6-1.2-1.2-1.6zm4.9 6.3l-1.6 1.2 1.2 1.6 1.5-1.3-1.1-1.5z"/></symbol><symbol id="icon-arrow-down" viewBox="0 0 105.8 43.5"><path d="M37.3 25l1.6 1.2 1.2-1.6-1.6-1.2-1.2 1.6zm-2.6-3.2l-.6.8 1.5 1.2 1.2-1.6-1.5-1.2-.6.8zm16.5 11.4L50 34.8l1.3 1-.1.1 1.2 1.6.3-.2-1-1.3 1.1-1.5-1.6-1.3zm-10.8-5.7l1.6 1.2 1.2-1.6-1.6-1.2-1.2 1.6zM31 20.1l1.6 1.2 1.2-1.6-1.6-1.2-1.2 1.6zm12.6 9.8l1.6 1.2 1.2-1.6-1.6-1.2-1.2 1.6zm3.2 2.4l1.6 1.2 1.2-1.6-1.6-1.1-1.2 1.5zM15.3 7.6l1.6 1.2 1.2-1.6L16.5 6l-1.2 1.6zm12.5 10l1.6 1.2 1.2-1.6-1.5-1.2-1.3 1.6zm-9.4-7.5l1.6 1.2 1.2-1.6-1.6-1.2-1.2 1.6zm6.3 5l1.6 1.2 1.2-1.6-1.6-1.2-1.2 1.6zm-3.1-2.5l1.6 1.2 1.2-1.6-1.6-1.2-1.2 1.6zm56.7 2.2l1.2 1.6 1.6-1.2-1.2-1.6-1.6 1.2zm3.1-2.5l1.2 1.6 1.6-1.2-1.2-1.6-1.6 1.2zm-6.2 5l1.2 1.6 1.6-1.2-1.3-1.7-1.5 1.3zM72 19.8l1.2 1.6 1.6-1.2-1.2-1.6-1.6 1.2zm12.6-10l1.2 1.6 1.6-1.2-1.2-1.6-1.6 1.2zm4.7-3.7l-1.6 1.2 1.2 1.6 1.6-1.2-1.2-1.6zM54.6 33.2L53 34.4l1.1 1.5-1 1.3.3.2 1.2-1.6-.1-.1 1.3-1-1.2-1.5zm4.8-3.7l1.2 1.6 1.6-1.2-1.2-1.6-1.6 1.2zM56.2 32l1.2 1.6 1.6-1.2-1.2-1.6-1.6 1.2zm9.5-7.3l1.2 1.6 1.6-1.2-1.2-1.6-1.6 1.2zm-3.1 2.4l1.2 1.6 1.6-1.2-1.2-1.6-1.6 1.2zm6.3-4.9l1.2 1.6 1.6-1.2-1.3-1.5-1.5 1.1z"/></symbol><symbol id="icon-arrow-up" viewBox="0 0 54.1 23.1"><path d="M52.6 23.1c-.3 0-.7-.1-.9-.3L27 3.4 2.4 22.8c-.7.5-1.6.4-2.1-.2-.5-.7-.4-1.6.2-2.1L26.1.3c.5-.4 1.3-.4 1.9 0l25.5 20.1c.7.5.8 1.5.2 2.1-.2.4-.7.6-1.1.6z"/></symbol><symbol id="logo-ic" viewBox="0 0 72 72"><path d="M4.7 34.8h-.8c-.2 0-.3.1-.3.3v11.1c0 .2.1.3.3.3h.8c.2 0 .3-.1.3-.3V35.1c0-.2-.1-.3-.3-.3zm-.4-2.6c.6 0 1-.4 1-1s-.4-1-1-1-1 .4-1 1 .5 1 1 1zM17 65c-.2 0-.4.1-.5.2-1.2.7-2.6 1-4 1.1-3.6 0-5.6-2.2-5.6-6 0-3.9 2-6.1 5.7-6.1 1.4 0 2.8.3 4 1 .2.2.4.2.5.2.2 0 .3-.2.3-.5v-2.3c0-.4-.1-.5-.6-.7-1.6-.6-3.2-.9-4.9-.9-6 0-9.5 3.4-9.5 9.3s3.3 9.1 9.4 9.1c1.8.1 3.5-.2 5.1-1 .4-.2.5-.3.5-.7v-2.3c0-.3-.1-.4-.4-.4zM8.6 46.5h.8c.2 0 .3-.1.3-.3v-9c0-.9 1.2-1.6 3-1.6 2.1 0 3.2 1.1 3.2 3.4v7.2c0 .2.1.3.3.3h.8c.2 0 .3-.1.3-.3v-6.8c0-1.9-.3-2.9-1.1-3.7-.9-.7-2-1.1-3.2-1.1-1 0-2 .2-2.9.6l-.3.1h-.2l-.2-.1V35v-.1c0-.1-.1-.2-.3-.2h-.5c-.2 0-.3.1-.3.3v11.1c0 .2.1.4.3.4zm54.8-10.7h3.5c.2 0 .3-.1.3-.3v-.4c0-.2-.1-.3-.3-.3h-3.5v-3c0-.2-.1-.3-.3-.3h-.8c-.2 0-.3.1-.3.3v3h-1.4c-.2 0-.3.1-.3.3v.4c0 .2.1.3.3.3H62v8.4c.1 1.5 1.5 2.6 2.9 2.4 1.4 0 2.3-.3 2.3-.8v-.3c0-.2-.1-.3-.2-.3l-.2.1c-.5.2-1 .3-1.5.3h-.4c-.9-.1-1.6-1-1.4-1.9v-7.9zM31.3 18.6c2.1 6.3 9 9.7 15.3 7.6 1.1-.4 2.2-.9 3.2-1.6-1.1-.7-2.2-1.5-3-2.5-.1-.1-.1-.2-.2-.3-1.2 1.1-2.5 1.9-3.9 2.6-.6.3-1.3.4-1.9.3-.6-.2-1.2-.5-1.6-1-1.5-1.9-2.7-4-3.4-6.3-.8-2.3-1.1-4.7-1-7.1.1-.7.3-1.3.7-1.8.5-.5 1.1-.8 1.7-.9 2.4-.4 4.9-.3 7.3.3.5.1.9.2 1.3.3-2.7 4.2-2.4 9.7.8 13.6.1.1.1.2.2.3.9 1 1.9 1.8 3 2.5l.1-.1-.1.1c2.7 1.6 6 2.1 9.1 1.3 6.3-1.5 10.2-7.9 8.7-14.2v-.1c-1.8-6.4-8.4-10.2-14.8-8.5-1.4.4-2.7 1-3.9 1.9.4.2.8.5 1.1.8-.4-.3-.7-.5-1.1-.8-3-1.7-6.5-2.1-9.8-1.1-6.2 1.9-9.7 8.4-7.8 14.7 0-.1 0 0 0 0zm20.7 4l-.3.3c.2-.2.3-.3.4-.5 0 .1-.1.1-.1.2zm-1.4-.6c.5.1 1.1.1 1.6.1-.5 0-1.1 0-1.6-.1zm.7-15.2c.2-.3.4-.6.7-.9.4-.5 1-.9 1.6-1.1.6-.1 1.3-.1 1.9.2 2.2 1 4.2 2.4 5.9 4.2 1.7 1.7 3.1 3.7 4.1 5.9.2.6.3 1.3.1 1.9-.2.6-.6 1.2-1.1 1.6-2 1.4-4.2 2.4-6.6 2.9-1.8.5-3.7.7-5.5.7 2.3-3 3-7 1.9-10.6-.7-1.9-1.7-3.5-3-4.8-.1 0 0 0 0 0zm-.4-.4c.1 0 .1.1.2.2-.2-.2-.4-.4-.6-.5.1.1.3.2.4.3zm-2.1 5.9c.3-.9.6-1.8.9-2.6-.1 0-.2-.1-.3-.1.1 0 .2.1.3.1.1-.1.1-.2.1-.4.3-.7.7-1.4 1.1-2-.4.6-.7 1.3-1.1 2-.1.1-.1.2-.1.4l1.5.9c.5.4 1 .9 1.2 1.5.2.6.1 1.3-.1 1.9-.9 2.2-2.2 4.3-3.9 6 0 .1-.1.1-.1.1-.1-.3-.2-.5-.2-.8-.3-2.3 0-4.7.7-7zm1 37.4c-1.2 0-2.2 1-2.2 2.2s1 2.2 2.2 2.2 2.2-1 2.2-2.2-.9-2.2-2.2-2.2zm-29.7-3.6c.8.4 1.7.6 2.7.6 2.2 0 3.6-1.3 3.6-3.2 0-1.3-.4-2-1.9-2.9l-2-1.3c-1.1-.8-1.3-1.1-1.3-1.8 0-1.1.9-1.8 2.2-1.8.7 0 1.4.2 2.1.6l.2.1c.1.1.2.1.4.1.1 0 .2-.1.2-.3v-.4c0-.6-1.4-1.1-2.8-1.1-2.1 0-3.4 1.2-3.4 3.1 0 1.2.4 1.9 1.9 2.8l1.6 1.1c1.1.8 1.4 1.2 1.4 2.1 0 1.2-.9 2-2.4 2-.8 0-1.6-.2-2.3-.7-.1-.1-.2-.1-.4-.1-.1 0-.2.1-.2.3v.4c0 .3 0 .3.3.4h.1zm26.9-.8l-.2.1c-.5.2-1 .3-1.5.3h-.4c-.9-.1-1.6-1-1.4-1.9v-8H47c.2 0 .3-.1.3-.3v-.4c0-.2-.1-.3-.3-.3h-3.5v-3c0-.2-.1-.3-.3-.3h-.8c-.2 0-.3.1-.3.3v3h-1.4c-.2 0-.3.1-.3.3v.4c0 .2.1.3.3.3H42v8.4c.1 1.5 1.5 2.6 2.9 2.4 1.4 0 2.3-.3 2.3-.8v-.3c0-.2 0-.2-.2-.2zm14.5 9.9c-4.4 0-6.8 2.5-6.8 7.2-.1 2 .6 3.9 1.9 5.3 1.2 1.2 2.6 1.6 5 1.6 1.7 0 3.3-.2 4.9-.8.4-.1.6-.4.6-.8v-1.9c0-.3-.1-.4-.3-.4-.1 0-.3.1-.4.1-1.2.7-2.5 1.1-3.9 1.1-2.4 0-3.8-1.2-3.8-3.3V63h8.8c.2 0 .4-.2.4-.4v-.8c.1-4.1-2.3-6.6-6.4-6.6zm2.5 5.2v.2h-5.2c-.1-.8.1-1.5.6-2.1.5-.5 1.3-.8 2-.8s1.4.2 1.9.7c.5.5.8 1.3.7 2zm-7.5-14.5h.2l.2.2v.1c0 .2.1.3.3.3h.6c.2 0 .3-.1.3-.3V35.1c0-.2-.2-.3-.3-.3H57c-.2 0-.3.1-.3.3V44c0 1.1-1.1 1.7-3.1 1.7H53c-1.5-.2-2.7-1.5-2.5-3.1v-7.5c0-.2-.1-.3-.3-.3h-.8c-.2 0-.3.1-.3.3v7.6c0 1.6.3 2.4 1.2 3.1.8.6 1.8.9 2.7.8 1.1 0 2.2-.2 3.3-.7h.2zm-5 9.5h-3.3c-.2 0-.4.2-.4.4v13c0 .2.2.3.4.4h3.3c.2 0 .3-.2.4-.4v-13c0-.2-.2-.4-.4-.4zm-19.3 0h-3.4c-.2 0-.3.2-.4.4v8.6c0 1.4-.7 2.1-2.2 2.1-1.6 0-2.4-1-2.4-2.9v-7.7c0-.2-.2-.3-.4-.4h-3.3c-.2 0-.3.2-.4.4v8.8c0 3.1 1.8 4.8 4.9 4.8.9 0 1.9-.2 2.7-.5.1 0 .3-.1.7-.3.2-.1.4-.1.5-.1h.1v.3c0 .2.2.3.3.4H32c.2 0 .3-.2.3-.4v-13c.3-.3.1-.5-.1-.5zm2.2-20.6h-3.5v-3c0-.2-.1-.3-.3-.3h-.8c-.2 0-.3.1-.3.3v3h-1.4c-.2 0-.3.1-.3.3v.4c0 .2.1.3.3.3h1.4v8.4c.1 1.5 1.5 2.6 2.9 2.4 1.4 0 2.3-.3 2.3-.8v-.3c0-.2-.1-.3-.2-.3l-.2.1c-.5.2-1 .3-1.5.3h-.4c-.9-.1-1.6-1-1.4-1.9v-8h3.5c.2 0 .3-.1.3-.3V35c-.1-.1-.3-.2-.4-.2zm9.9 20.6H43.4c-.8 0-1.5.2-2.2.5-.3.2-.5.2-.8.2h-.1v-.4c0-.2-.2-.3-.3-.4h-3.1c-.2 0-.3.2-.3.4v13c0 .2.2.3.3.3h3.3c.2 0 .3-.2.4-.4v-8.3c0-1.5.5-2 2.1-2 .7 0 1.4.1 2.1.3l.3.1c.3 0 .4-.2.4-.6v-2c0-.5-.3-.7-1.2-.7zm-6.8-23.2c.6 0 1-.4 1-1s-.4-1-1-1-1 .4-1 1 .5 1 1 1zm.4 2.6h-.8c-.2 0-.3.1-.3.3v11.1c0 .2.1.3.3.3h.8c.2 0 .3-.1.3-.3V35.1c0-.2-.1-.3-.3-.3z" fill="#fff"/></symbol></svg>