<svg xmlns="http://www.w3.org/2000/svg" width="120.435" height="114.992" viewBox="0 0 120.435 114.992"><g transform="translate(-1244.919 -569.432) rotate(8)"><path d="M-8.387,8.139V-16.33h6.72V8.139Zm12.51,0V-16.33H20.908v5.859H10.844V-6.4h8.2V-.959h-8.2v9.1Zm20.989,0V-16.33h6.72V8.139ZM-23.49,36.31h14.8V32.834h-8.841c3.476-2.937,8.361-6.893,8.361-11.958,0-3.806-2.368-6.593-7.073-6.593-3.926,0-7.133,2.308-7.282,7.312h4.076c.03-2.308,1.139-3.746,3.147-3.746,2.068,0,2.937,1.319,2.937,3.267,0,4.016-5.185,7.882-10.129,12.077ZM-6.048,25.4c0,6.383,1.918,11.148,8.092,11.148s8.092-4.765,8.092-11.148c0-6.323-1.918-11.058-8.092-11.058S-6.048,19.078-6.048,25.4ZM6,25.4c0,3.9-.42,7.252-3.956,7.252S-1.913,29.3-1.913,25.4c0-3.746.42-7.163,3.956-7.163S6,21.655,6,25.4ZM13.072,36.31h14.8V32.834H19.036C22.512,29.9,27.4,25.941,27.4,20.876c0-3.806-2.368-6.593-7.073-6.593-3.926,0-7.133,2.308-7.282,7.312h4.076c.03-2.308,1.139-3.746,3.147-3.746,2.068,0,2.937,1.319,2.937,3.267,0,4.016-5.185,7.882-10.129,12.077Z" transform="translate(1367.488 428.228)" fill="#f60"/><path d="M6991.476,2373.175h29.492V2465.2h-29.492" transform="translate(-5592.072 -1980)" fill="none" stroke="#f60" stroke-width="9"/><path d="M7020.968,2373.175h-29.492V2465.2h29.492" transform="translate(-5661 -1980)" fill="none" stroke="#f60" stroke-width="9"/><text transform="translate(1397.552 459.757)" fill="#f60" font-size="31" font-family="Raleway-Bold, Raleway" font-weight="700"><tspan x="0" y="0">3</tspan></text></g></svg>