<svg xmlns="http://www.w3.org/2000/svg" width="67" height="67" viewBox="0 0 67 67"><g transform="translate(-9007 -2398)"><circle cx="33.5" cy="33.5" r="33.5" transform="translate(9007 2398)" fill="#505050"/><g transform="translate(5814 -560)"><g transform="translate(3016.711 2941.711)"><circle cx="27.5" cy="27.5" r="27.5" transform="translate(182.289 22.289)" fill="#f60"/><path d="M27.5,0a27.5,27.5,0,0,1,0,55C27.127,54.605,26.953-.172,27.5,0Z" transform="translate(182.137 22.289)" fill="#fc8b41"/></g><path d="M11.2,0A11.2,11.2,0,1,1,0,11.2,11.2,11.2,0,0,1,11.2,0Z" transform="translate(3215.036 2973.096)" fill="#e3e3e3"/><g transform="translate(3209 2981.954)"><g transform="translate(12.515 10.425)"><path d="M964.454,228h-8.7a.569.569,0,0,0-.57.569V239.55a.569.569,0,0,0,.57.569h5.988l3.279-3.279v-8.271A.569.569,0,0,0,964.454,228Z" transform="translate(-955.187 -228)" fill="#fff" stroke="#fff" stroke-linecap="round" stroke-linejoin="round" stroke-width="1"/><path d="M977.371,261.187l3.279-3.279H977.94a.569.569,0,0,0-.569.57Z" transform="translate(-970.813 -249.067)" fill="#f60" stroke="#f60" stroke-linecap="round" stroke-linejoin="round" stroke-width="1"/></g><g transform="translate(0 10.425)"><path d="M922.117,228h-8.7a.569.569,0,0,0-.57.569V239.55a.569.569,0,0,0,.57.569h5.988l3.279-3.279v-8.271A.569.569,0,0,0,922.117,228Z" transform="translate(-912.85 -228)" fill="#fff" stroke="#fff" stroke-linecap="round" stroke-linejoin="round" stroke-width="1"/><path d="M935.034,261.187l3.279-3.279H935.6a.569.569,0,0,0-.569.57Z" transform="translate(-928.476 -249.067)" fill="#f60" stroke="#f60" stroke-linecap="round" stroke-linejoin="round" stroke-width="1"/></g><g transform="translate(25.03 10.425)"><path d="M1006.791,228h-8.7a.569.569,0,0,0-.57.569V239.55a.569.569,0,0,0,.57.569h5.988l3.279-3.279v-8.271A.569.569,0,0,0,1006.791,228Z" transform="translate(-997.524 -228)" fill="#fff" stroke="#fff" stroke-linecap="round" stroke-linejoin="round" stroke-width="1"/><path d="M1019.708,261.187l3.279-3.279h-2.71a.569.569,0,0,0-.569.57Z" transform="translate(-1013.15 -249.067)" fill="#f60" stroke="#f60" stroke-linecap="round" stroke-linejoin="round" stroke-width="1"/></g><g transform="translate(15.797 1)"><line y1="6.208" transform="translate(1.341)" fill="none" stroke="#353537" stroke-linecap="round" stroke-linejoin="round" stroke-width="2"/><line y1="1.341" x2="1.341" fill="none" stroke="#353537" stroke-linecap="round" stroke-linejoin="round" stroke-width="2"/><line x1="1.341" y1="1.341" transform="translate(1.341)" fill="none" stroke="#353537" stroke-linecap="round" stroke-linejoin="round" stroke-width="2"/></g><g transform="translate(21.118 1)"><path d="M988.825,199.5v2.66c0,.887,1.478,2.365,4.434,1.478s4.434.591,4.434,2.365" transform="translate(-987.484 -199.5)" fill="none" stroke="#353537" stroke-linecap="round" stroke-linejoin="round" stroke-width="2"/><line y1="1.341" x2="1.341" fill="none" stroke="#353537" stroke-linecap="round" stroke-linejoin="round" stroke-width="2"/><line x1="1.341" y1="1.341" transform="translate(1.341)" fill="none" stroke="#353537" stroke-linecap="round" stroke-linejoin="round" stroke-width="2"/></g><g transform="translate(2.949 1)"><path d="M931.693,199.5v2.66c0,.887-1.478,2.365-4.434,1.478s-4.434.591-4.434,2.365" transform="translate(-922.825 -199.5)" fill="none" stroke="#353537" stroke-linecap="round" stroke-linejoin="round" stroke-width="2"/><line x1="1.341" y1="1.341" transform="translate(8.868)" fill="none" stroke="#353537" stroke-linecap="round" stroke-linejoin="round" stroke-width="2"/><line y1="1.341" x2="1.341" transform="translate(7.527)" fill="none" stroke="#353537" stroke-linecap="round" stroke-linejoin="round" stroke-width="2"/></g></g></g></g></svg>