<svg xmlns="http://www.w3.org/2000/svg" width="67" height="67" viewBox="0 0 67 67"><g transform="translate(-8408 -2398)"><circle cx="33.5" cy="33.5" r="33.5" transform="translate(8408 2398)" fill="#505050"/><g transform="translate(5215 -486)"><g transform="translate(3016.711 2867.711)"><circle cx="27.5" cy="27.5" r="27.5" transform="translate(182.289 22.289)" fill="#f60"/><path d="M27.5,0a27.5,27.5,0,0,1,0,55C27.127,54.605,26.953-.172,27.5,0Z" transform="translate(182.137 22.289)" fill="#fc8b41"/></g><g transform="translate(14 848.848)"><g transform="translate(3192.487 2056.487)"><g transform="translate(0 0)"><path d="M673.545,571.6c.363.4,39.724-1.976,40.088-2.382.405-.453.405-7.721,0-8.174-.363-.405-9.1-3.351-20.044-3.351s-19.681,11.911-20.044,12.317A1.193,1.193,0,0,0,673.545,571.6Z" transform="translate(-673.241 -557.695)" fill="#f60"/></g></g><g transform="translate(3192.487 2057.541)"><g transform="translate(0)"><path d="M673.545,571.6c.363.4,9.1,7.553,20.044,7.553s19.681-9.529,20.044-9.935a1.192,1.192,0,0,0,0-1.59c-.363-.405-9.1-9.935-20.044-9.935s-19.681,11.911-20.044,12.317A1.193,1.193,0,0,0,673.545,571.6Z" transform="translate(-673.241 -557.695)" fill="#9b999b"/></g></g><g transform="translate(3197.009 2059.925)"><g transform="translate(0)"><path d="M673.477,568.511c.282.315,7.078,5.875,15.589,5.875s15.307-7.412,15.589-7.727a.927.927,0,0,0,0-1.237c-.283-.315-7.078-7.727-15.589-7.727s-15.307,9.264-15.589,9.58A.928.928,0,0,0,673.477,568.511Z" transform="translate(-673.241 -557.695)" fill="#fff"/></g></g><circle cx="8.346" cy="8.346" r="8.346" transform="translate(3204.489 2059.925)" fill="#9b999b"/><g transform="translate(3207.839 2063.131)"><path d="M726.579,578.722a3.067,3.067,0,0,0-1.306-2.5,5.122,5.122,0,1,1-2.754,5.426A3.089,3.089,0,0,0,726.579,578.722Z" transform="translate(-722.52 -575.638)" fill="#353537"/></g></g></g></g></svg>