<svg xmlns="http://www.w3.org/2000/svg" width="67" height="67" viewBox="0 0 67 67"><g transform="translate(-269 -1413)"><circle cx="33.5" cy="33.5" r="33.5" transform="translate(269 1413)" fill="#505050"/><g transform="translate(-2924 -1392)"><g transform="translate(19 906)"><g transform="translate(2997.711 1882.711)"><circle cx="27.5" cy="27.5" r="27.5" transform="translate(182.289 22.289)" fill="#f60"/><path d="M27.5,0a27.5,27.5,0,0,1,0,55C27.127,54.605,26.953-.172,27.5,0Z" transform="translate(182.137 22.289)" fill="#fc8b41"/></g><g transform="translate(-0.492 -0.87)"><g transform="translate(-19.773 -96.363)"><path d="M473.427,183.789a11.464,11.464,0,0,0,0,19.353" transform="translate(2747.82 1835.862)" fill="none" stroke="#fff" stroke-linecap="round" stroke-linejoin="round" stroke-width="3"/><path d="M462.27,172.339a16.05,16.05,0,0,0,0,27.208" transform="translate(2756.606 1843.384)" fill="none" stroke="#505050" stroke-linecap="round" stroke-linejoin="round" stroke-width="3"/><path d="M452.352,162.161a20.129,20.129,0,0,0,0,34.19" transform="translate(2764.415 1850.071)" fill="none" stroke="#fcb586" stroke-linecap="round" stroke-linejoin="round" stroke-width="3"/><path d="M519.341,183.789a11.464,11.464,0,0,1,0,19.353" transform="translate(2714.161 1835.862)" fill="none" stroke="#fff" stroke-linecap="round" stroke-linejoin="round" stroke-width="3"/><path d="M526.254,172.339a16.05,16.05,0,0,1,0,27.208" transform="translate(2709.619 1843.384)" fill="none" stroke="#505050" stroke-linecap="round" stroke-linejoin="round" stroke-width="3"/><path d="M532.4,162.161a20.227,20.227,0,0,1,0,34.19" transform="translate(2705.582 1850.071)" fill="none" stroke="#f60" stroke-linecap="round" stroke-linejoin="round" stroke-width="3"/><path d="M5.66,0A5.66,5.66,0,1,1,0,5.66,5.66,5.66,0,0,1,5.66,0Z" transform="translate(3222.237 2023.668)" fill="#fff"/><circle cx="3.339" cy="3.339" r="3.339" transform="translate(3224.558 2025.988)" fill="#505050"/></g></g></g></g></g></svg>