<?xml version="1.0" encoding="utf-8"?>
<!-- Generator: Adobe Illustrator 24.0.1, SVG Export Plug-In . SVG Version: 6.00 Build 0)  -->
<svg version="1.1" id="Calque_1" xmlns="http://www.w3.org/2000/svg" xmlns:xlink="http://www.w3.org/1999/xlink" x="0px" y="0px"
	 viewBox="0 0 32 32" style="enable-background:new 0 0 32 32;" xml:space="preserve">
<style type="text/css">
	.st0{fill:#FFFFFF;}
</style>
<g>
	<g>
		<path class="st0" d="M4.4,27.4h5.1V12.1H4.4V27.4z M22,11.7c-2.7,0-4.6,2.6-4.6,2.6v-2.2h-5.1v15.3h5.1v-8.6c0-0.4,0-0.8,0.2-1.2
			c0.4-1.1,1.4-1.9,2.6-1.9c1.8,0,2.6,1.4,2.6,3.5v8.2h5.1v-8.8C27.9,13.9,25.4,11.7,22,11.7z M7.4,4.7H7c-1.5-0.1-2.7,1-2.9,2.4
			C4,8.6,5.1,9.9,6.6,10H7c1.5,0.1,2.7-0.9,2.9-2.4C10.1,6.1,8.9,4.8,7.4,4.7z"/>
	</g>
</g>
</svg>
