<?xml version="1.0" encoding="utf-8"?>
<!-- Generator: Adobe Illustrator 24.0.1, SVG Export Plug-In . SVG Version: 6.00 Build 0)  -->
<svg version="1.1" id="Calque_1" xmlns="http://www.w3.org/2000/svg" xmlns:xlink="http://www.w3.org/1999/xlink" x="0px" y="0px"
	 viewBox="0 0 32 32" style="enable-background:new 0 0 32 32;" xml:space="preserve">
<style type="text/css">
	.st0{fill-rule:evenodd;clip-rule:evenodd;fill:#FFFFFF;}
</style>
<path id="Tracé_2" class="st0" d="M11,27c10.2,0,15.8-8.4,15.8-15.8v-0.8c1-0.8,2-1.8,2.7-2.9c-1,0.4-2.1,0.7-3.2,0.9
	c1.1-0.7,2-1.8,2.4-3c-1.1,0.6-2.2,1.1-3.4,1.3c-1-1.2-2.5-1.8-4.1-1.8c-3.1,0-5.5,2.5-5.6,5.6c0,0.4,0,0.8,0.2,1.2
	c-4.5-0.2-8.6-2.4-11.4-5.9C3.9,6.8,3.7,7.8,3.7,8.8c0,1.8,0.9,3.6,2.4,4.7c-0.9,0-1.8-0.3-2.6-0.8l0,0c0,2.7,1.9,4.9,4.5,5.4
	c-0.5,0.1-1,0.2-1.5,0.1c-0.4,0-0.7,0-1.1-0.1c0.8,2.3,2.9,3.8,5.3,3.9c-2,1.5-4.4,2.4-6.9,2.4c-0.5,0-0.9,0-1.3-0.1
	C5,26.1,8,27,11,27"/>
</svg>
