<?xml version="1.0" encoding="utf-8"?>
<!-- Generator: Adobe Illustrator 24.0.1, SVG Export Plug-In . SVG Version: 6.00 Build 0)  -->
<svg version="1.1" id="Calque_1" xmlns="http://www.w3.org/2000/svg" xmlns:xlink="http://www.w3.org/1999/xlink" x="0px" y="0px"
	 viewBox="0 0 105 105" style="enable-background:new 0 0 105 105;" xml:space="preserve">
<style type="text/css">
	.st0{fill:#FF6600;}
</style>
<g>
	<g>
		<g>
			<path class="st0" d="M41.4,68.1l1.2-1.6L41,65.3l-1.2,1.6L41.4,68.1z M38.2,70.7l0.8,0.6l1.2-1.5l-1.6-1.2l-1.2,1.5L38.2,70.7z
				 M49.6,54.2l1.6,1.2l1-1.3l0.1,0.1l1.6-1.2l-0.2-0.3l-1.3,1l-1.5-1.1L49.6,54.2z M43.9,65l1.2-1.6l-1.6-1.2l-1.2,1.6L43.9,65z
				 M36.5,74.4l1.2-1.6l-1.6-1.2l-1.2,1.6L36.5,74.4z M46.3,61.8l1.2-1.6L45.9,59l-1.2,1.6L46.3,61.8z M48.7,58.6l1.2-1.6l-1.6-1.2
				l-1.1,1.6L48.7,58.6z M24,90.1l1.2-1.6l-1.6-1.2l-1.2,1.6L24,90.1z M34,77.6l1.2-1.6l-1.6-1.2l-1.2,1.5L34,77.6z M26.5,87
				l1.2-1.6l-1.6-1.2l-1.2,1.6L26.5,87z M31.5,80.7l1.2-1.6l-1.6-1.2l-1.2,1.6L31.5,80.7z M29,83.8l1.2-1.6L28.6,81l-1.2,1.6
				L29,83.8z M31.2,27.1l1.6-1.2l-1.2-1.6L30,25.5L31.2,27.1z M28.7,24l1.6-1.2l-1.2-1.6l-1.6,1.2L28.7,24z M33.7,30.2l1.6-1.2
				l-1.2-1.6l-1.7,1.3L33.7,30.2z M36.2,33.4l1.6-1.2l-1.2-1.6L35,31.8L36.2,33.4z M26.2,20.8l1.6-1.2L26.6,18L25,19.2L26.2,20.8z
				 M22.5,16.1l1.2,1.6l1.6-1.2l-1.2-1.6L22.5,16.1z M49.6,50.8l1.2,1.6l1.5-1.1l1.3,1l0.2-0.3l-1.6-1.2l-0.1,0.1l-1-1.3L49.6,50.8z
				 M45.9,46l1.6-1.2l-1.2-1.6l-1.6,1.2L45.9,46z M48.4,49.2L50,48l-1.2-1.6l-1.6,1.2L48.4,49.2z M41.1,39.7l1.6-1.2l-1.2-1.6
				l-1.6,1.2L41.1,39.7z M43.5,42.8l1.6-1.2L43.9,40l-1.6,1.2L43.5,42.8z M38.6,36.5l1.6-1.2L39,33.7L37.5,35L38.6,36.5z"/>
		</g>
	</g>
	<g>
		<g>
			<path class="st0" d="M63.6,36.9l-1.2,1.6l1.6,1.2l1.2-1.6L63.6,36.9z M66.8,34.3L66,33.7l-1.2,1.5l1.6,1.2l1.2-1.5L66.8,34.3z
				 M55.4,50.8l-1.6-1.2l-1,1.3l-0.1-0.1L51.1,52l0.2,0.3l1.3-1l1.5,1.1L55.4,50.8z M61.1,40l-1.2,1.6l1.6,1.2l1.2-1.6L61.1,40z
				 M68.5,30.6l-1.2,1.6l1.6,1.2l1.2-1.6L68.5,30.6z M58.7,43.2l-1.2,1.6l1.6,1.2l1.2-1.6L58.7,43.2z M56.3,46.4L55.1,48l1.6,1.2
				l1.1-1.6L56.3,46.4z M81,14.9l-1.2,1.6l1.6,1.2l1.2-1.6L81,14.9z M71,27.4L69.8,29l1.6,1.2l1.2-1.5L71,27.4z M78.5,18l-1.2,1.6
				l1.6,1.2l1.2-1.6L78.5,18z M73.5,24.3l-1.2,1.6l1.6,1.2l1.2-1.6L73.5,24.3z M76,21.2l-1.2,1.6l1.6,1.2l1.2-1.6L76,21.2z
				 M73.8,77.9l-1.6,1.2l1.2,1.6l1.6-1.2L73.8,77.9z M76.3,81l-1.6,1.2l1.2,1.6l1.6-1.2L76.3,81z M71.3,74.8L69.7,76l1.2,1.6
				l1.7-1.3L71.3,74.8z M68.8,71.6l-1.6,1.2l1.2,1.6l1.6-1.2L68.8,71.6z M78.8,84.2l-1.6,1.2l1.2,1.6l1.6-1.2L78.8,84.2z M82.5,88.9
				l-1.2-1.6l-1.6,1.2l1.2,1.6L82.5,88.9z M55.4,54.2l-1.2-1.6l-1.5,1.1l-1.3-1L51.2,53l1.6,1.2l0.1-0.1l1,1.3L55.4,54.2z M59.1,59
				l-1.6,1.2l1.2,1.6l1.6-1.2L59.1,59z M56.6,55.8L55,57l1.2,1.6l1.6-1.2L56.6,55.8z M63.9,65.3l-1.6,1.2l1.2,1.6l1.6-1.2L63.9,65.3
				z M61.5,62.2l-1.6,1.2l1.2,1.6l1.6-1.2L61.5,62.2z M66.4,68.5l-1.6,1.2l1.2,1.6l1.5-1.3L66.4,68.5z"/>
		</g>
	</g>
</g>
</svg>
