<?xml version="1.0" encoding="utf-8"?>
<!-- Generator: Adobe Illustrator 24.0.1, SVG Export Plug-In . SVG Version: 6.00 Build 0)  -->
<svg version="1.1" id="Calque_1" xmlns="http://www.w3.org/2000/svg" xmlns:xlink="http://www.w3.org/1999/xlink" x="0px" y="0px"
	 viewBox="0 0 105.8 43.5" style="enable-background:new 0 0 105.8 43.5;" xml:space="preserve">
<style type="text/css">
	.st0{fill:#FF6600;}
</style>
<g>
	<g>
		<path class="st0" d="M37.3,25l1.6,1.2l1.2-1.6l-1.6-1.2L37.3,25z M34.7,21.8l-0.6,0.8l1.5,1.2l1.2-1.6L35.3,21L34.7,21.8z
			 M51.2,33.2L50,34.8l1.3,1l-0.1,0.1l1.2,1.6l0.3-0.2l-1-1.3l1.1-1.5L51.2,33.2z M40.4,27.5l1.6,1.2l1.2-1.6l-1.6-1.2L40.4,27.5z
			 M31,20.1l1.6,1.2l1.2-1.6l-1.6-1.2L31,20.1z M43.6,29.9l1.6,1.2l1.2-1.6l-1.6-1.2L43.6,29.9z M46.8,32.3l1.6,1.2l1.2-1.6L48,30.8
			L46.8,32.3z M15.3,7.6l1.6,1.2l1.2-1.6l-1.6-1.2L15.3,7.6z M27.8,17.6l1.6,1.2l1.2-1.6L29.1,16L27.8,17.6z M18.4,10.1l1.6,1.2
			l1.2-1.6l-1.6-1.2L18.4,10.1z M24.7,15.1l1.6,1.2l1.2-1.6l-1.6-1.2L24.7,15.1z M21.6,12.6l1.6,1.2l1.2-1.6l-1.6-1.2L21.6,12.6z
			 M78.3,14.8l1.2,1.6l1.6-1.2l-1.2-1.6L78.3,14.8z M81.4,12.3l1.2,1.6l1.6-1.2L83,11.1L81.4,12.3z M75.2,17.3l1.2,1.6l1.6-1.2
			L76.7,16L75.2,17.3z M72,19.8l1.2,1.6l1.6-1.2l-1.2-1.6L72,19.8z M84.6,9.8l1.2,1.6l1.6-1.2l-1.2-1.6L84.6,9.8z M89.3,6.1
			l-1.6,1.2l1.2,1.6l1.6-1.2L89.3,6.1z M54.6,33.2L53,34.4l1.1,1.5l-1,1.3l0.3,0.2l1.2-1.6l-0.1-0.1l1.3-1L54.6,33.2z M59.4,29.5
			l1.2,1.6l1.6-1.2L61,28.3L59.4,29.5z M56.2,32l1.2,1.6l1.6-1.2l-1.2-1.6L56.2,32z M65.7,24.7l1.2,1.6l1.6-1.2l-1.2-1.6L65.7,24.7z
			 M62.6,27.1l1.2,1.6l1.6-1.2l-1.2-1.6L62.6,27.1z M68.9,22.2l1.2,1.6l1.6-1.2l-1.3-1.5L68.9,22.2z"/>
	</g>
</g>
</svg>
