<?xml version="1.0" encoding="utf-8"?>
<!-- Generator: Adobe Illustrator 24.0.1, SVG Export Plug-In . SVG Version: 6.00 Build 0)  -->
<svg version="1.1" id="Calque_1" xmlns="http://www.w3.org/2000/svg" xmlns:xlink="http://www.w3.org/1999/xlink" x="0px" y="0px"
	 viewBox="0 0 72 72" style="enable-background:new 0 0 72 72;" xml:space="preserve">
<style type="text/css">
	.st0{fill:#FFFFFF;}
</style>
<g>
	<g>
		<path class="st0" d="M4.7,34.8H3.9c-0.2,0-0.3,0.1-0.3,0.3v11.1c0,0.2,0.1,0.3,0.3,0.3h0.8c0.2,0,0.3-0.1,0.3-0.3V35.1
			c0,0,0,0,0,0C5,34.9,4.9,34.8,4.7,34.8z M4.3,32.2c0.6,0,1-0.4,1-1s-0.4-1-1-1c-0.6,0-1,0.4-1,1S3.8,32.2,4.3,32.2z M17,65
			c-0.2,0-0.4,0.1-0.5,0.2c-1.2,0.7-2.6,1-4,1.1c-3.6,0-5.6-2.2-5.6-6c0-3.9,2-6.1,5.7-6.1c1.4,0,2.8,0.3,4,1
			c0.2,0.2,0.4,0.2,0.5,0.2c0.2,0,0.3-0.2,0.3-0.5v-2.3c0-0.4-0.1-0.5-0.6-0.7c-1.6-0.6-3.2-0.9-4.9-0.9c-6,0-9.5,3.4-9.5,9.3l0,0
			c0,5.9,3.3,9.1,9.4,9.1c1.8,0.1,3.5-0.2,5.1-1c0.4-0.2,0.5-0.3,0.5-0.7v-2.3C17.4,65.1,17.3,65,17,65z M8.6,46.5h0.8
			c0.2,0,0.3-0.1,0.3-0.3v-9c0-0.9,1.2-1.6,3-1.6c2.1,0,3.2,1.1,3.2,3.4v7.2c0,0.2,0.1,0.3,0.3,0.3H17c0.2,0,0.3-0.1,0.3-0.3v-6.8
			c0-1.9-0.3-2.9-1.1-3.7c-0.9-0.7-2-1.1-3.2-1.1c-1,0-2,0.2-2.9,0.6l-0.3,0.1l-0.2,0l-0.2-0.1v-0.2c0,0,0,0,0-0.1
			c0-0.1-0.1-0.2-0.3-0.2H8.6c-0.2,0-0.3,0.1-0.3,0.3v11.1l0,0C8.3,46.3,8.4,46.5,8.6,46.5z M63.4,35.8h3.5c0.2,0,0.3-0.1,0.3-0.3
			v-0.4c0-0.2-0.1-0.3-0.3-0.3h-3.5v-3c0-0.2-0.1-0.3-0.3-0.3h-0.8c-0.2,0-0.3,0.1-0.3,0.3v3h-1.4c-0.2,0-0.3,0.1-0.3,0.3v0.4
			c0,0,0,0,0,0c0,0.2,0.1,0.3,0.3,0.3H62v7.9c0,0.2,0,0.4,0,0.5c0.1,1.5,1.5,2.6,2.9,2.4c1.4,0,2.3-0.3,2.3-0.8v-0.3
			c0-0.2-0.1-0.3-0.2-0.3l-0.2,0.1c-0.5,0.2-1,0.3-1.5,0.3c-0.1,0-0.3,0-0.4,0c-0.9-0.1-1.6-1-1.4-1.9V35.8z M31.3,18.6
			c2.1,6.3,9,9.7,15.3,7.6c1.1-0.4,2.2-0.9,3.2-1.6c-1.1-0.7-2.2-1.5-3-2.5c-0.1-0.1-0.1-0.2-0.2-0.3c-1.2,1.1-2.5,1.9-3.9,2.6
			c-0.6,0.3-1.3,0.4-1.9,0.3c-0.6-0.2-1.2-0.5-1.6-1c-1.5-1.9-2.7-4-3.4-6.3c-0.8-2.3-1.1-4.7-1-7.1c0.1-0.7,0.3-1.3,0.7-1.8
			C36,8,36.6,7.7,37.2,7.6c2.4-0.4,4.9-0.3,7.3,0.3c0.5,0.1,0.9,0.2,1.3,0.3c0,0,0,0,0,0c0,0,0,0,0,0c-2.7,4.2-2.4,9.7,0.8,13.6l0,0
			c0.1,0.1,0.1,0.2,0.2,0.3c0.9,1,1.9,1.8,3,2.5c0,0,0,0,0.1-0.1c0,0,0,0-0.1,0.1c2.7,1.6,6,2.1,9.1,1.3c6.3-1.5,10.2-7.9,8.7-14.2
			c0,0,0-0.1,0-0.1c-1.8-6.4-8.4-10.2-14.8-8.5c-1.4,0.4-2.7,1-3.9,1.9c0.4,0.2,0.8,0.5,1.1,0.8c-0.4-0.3-0.7-0.5-1.1-0.8
			c0,0,0,0,0,0c-3-1.7-6.5-2.1-9.8-1.1c-6.2,1.9-9.7,8.4-7.8,14.7C31.3,18.5,31.3,18.6,31.3,18.6z M52,22.6
			c-0.1,0.1-0.2,0.2-0.3,0.3c0.2-0.2,0.3-0.3,0.4-0.5C52.1,22.5,52,22.5,52,22.6z M50.6,22c0.5,0.1,1.1,0.1,1.6,0.1
			C51.7,22.1,51.1,22.1,50.6,22z M51.3,6.8c0.2-0.3,0.4-0.6,0.7-0.9c0.4-0.5,1-0.9,1.6-1.1c0.6-0.1,1.3-0.1,1.9,0.2
			c2.2,1,4.2,2.4,5.9,4.2c1.7,1.7,3.1,3.7,4.1,5.9c0.2,0.6,0.3,1.3,0.1,1.9c-0.2,0.6-0.6,1.2-1.1,1.6c-2,1.4-4.2,2.4-6.6,2.9
			c-1.8,0.5-3.7,0.7-5.5,0.7c0,0,0,0,0,0l0,0c2.3-3,3-7,1.9-10.6C53.6,9.7,52.6,8.1,51.3,6.8C51.2,6.8,51.3,6.8,51.3,6.8
			C51.3,6.8,51.3,6.8,51.3,6.8z M50.9,6.4c0.1,0,0.1,0.1,0.2,0.2c-0.2-0.2-0.4-0.4-0.6-0.5C50.6,6.2,50.8,6.3,50.9,6.4z M48.8,12.3
			c0.3-0.9,0.6-1.8,0.9-2.6c-0.1,0-0.2-0.1-0.3-0.1c0.1,0,0.2,0.1,0.3,0.1c0.1-0.1,0.1-0.2,0.1-0.4c0.3-0.7,0.7-1.4,1.1-2
			c-0.4,0.6-0.7,1.3-1.1,2c-0.1,0.1-0.1,0.2-0.1,0.4c0.5,0.3,1,0.6,1.5,0.9c0.5,0.4,1,0.9,1.2,1.5c0.2,0.6,0.1,1.3-0.1,1.9
			c-0.9,2.2-2.2,4.3-3.9,6c0,0.1-0.1,0.1-0.1,0.1c0,0,0,0,0,0c0,0,0,0,0,0c-0.1-0.3-0.2-0.5-0.2-0.8C47.8,17,48.1,14.6,48.8,12.3z
			 M49.8,49.7c-1.2,0-2.2,1-2.2,2.2s1,2.2,2.2,2.2s2.2-1,2.2-2.2S51.1,49.7,49.8,49.7z M20.1,46.1c0.8,0.4,1.7,0.6,2.7,0.6
			c2.2,0,3.6-1.3,3.6-3.2c0-1.3-0.4-2-1.9-2.9l-2-1.3c-1.1-0.8-1.3-1.1-1.3-1.8c0-1.1,0.9-1.8,2.2-1.8c0.7,0,1.4,0.2,2.1,0.6
			l0.2,0.1c0.1,0.1,0.2,0.1,0.4,0.1h0c0.1,0,0.2-0.1,0.2-0.3v-0.4c0-0.6-1.4-1.1-2.8-1.1c-2.1,0-3.4,1.2-3.4,3.1
			c0,1.2,0.4,1.9,1.9,2.8l1.6,1.1l0,0c1.1,0.8,1.4,1.2,1.4,2.1c0,1.2-0.9,2-2.4,2c-0.8,0-1.6-0.2-2.3-0.7c-0.1-0.1-0.2-0.1-0.4-0.1
			c-0.1,0-0.2,0.1-0.2,0.3v0.4c0,0.3,0,0.3,0.3,0.4L20.1,46.1z M47,45.3l-0.2,0.1c-0.5,0.2-1,0.3-1.5,0.3c-0.1,0-0.3,0-0.4,0
			c-0.9-0.1-1.6-1-1.4-1.9v-8h3.5c0.2,0,0.3-0.1,0.3-0.3v-0.4c0-0.2-0.1-0.3-0.3-0.3h-3.5v-3c0-0.2-0.1-0.3-0.3-0.3h-0.8
			c-0.2,0-0.3,0.1-0.3,0.3v3h-1.4c-0.2,0-0.3,0.1-0.3,0.3v0.4c0,0.2,0.1,0.3,0.3,0.3H42v7.9c0,0.2,0,0.4,0,0.5
			c0.1,1.5,1.5,2.6,2.9,2.4c1.4,0,2.3-0.3,2.3-0.8v-0.3C47.2,45.3,47.2,45.3,47,45.3z M61.5,55.2c-4.4,0-6.8,2.5-6.8,7.2
			c-0.1,2,0.6,3.9,1.9,5.3l0,0c1.2,1.2,2.6,1.6,5,1.6c1.7,0,3.3-0.2,4.9-0.8c0.4-0.1,0.6-0.4,0.6-0.8v-1.9c0-0.3-0.1-0.4-0.3-0.4
			c-0.1,0-0.3,0.1-0.4,0.1c-1.2,0.7-2.5,1.1-3.9,1.1c-2.4,0-3.8-1.2-3.8-3.3v-0.3h8.8c0.2,0,0.4-0.2,0.4-0.4v-0.8
			C68,57.7,65.6,55.2,61.5,55.2z M64,60.4v0.2h-5.2c-0.1-0.8,0.1-1.5,0.6-2.1c0.5-0.5,1.3-0.8,2-0.8c0.7,0,1.4,0.2,1.9,0.7
			C63.8,58.9,64.1,59.7,64,60.4z M56.5,45.9l0.1,0l0.1,0l0.2,0.2v0.1c0,0.2,0.1,0.3,0.3,0.3h0.6c0,0,0,0,0,0c0.2,0,0.3-0.1,0.3-0.3
			V35.1c0,0,0,0,0,0c0-0.2-0.2-0.3-0.3-0.3H57c-0.2,0-0.3,0.1-0.3,0.3V44c0,1.1-1.1,1.7-3.1,1.7c-0.2,0-0.4,0-0.6,0
			c-1.5-0.2-2.7-1.5-2.5-3.1v-7.5c0,0,0,0,0,0c0-0.2-0.1-0.3-0.3-0.3h-0.8c-0.2,0-0.3,0.1-0.3,0.3v7.6c0,1.6,0.3,2.4,1.2,3.1
			c0.8,0.6,1.8,0.9,2.7,0.8c1.1,0,2.2-0.2,3.3-0.7L56.5,45.9z M51.5,55.4h-3.3c-0.2,0-0.4,0.2-0.4,0.4v13c0,0.2,0.2,0.3,0.4,0.4h3.3
			c0.2,0,0.3-0.2,0.4-0.4v-13C51.9,55.6,51.7,55.4,51.5,55.4z M32.2,55.4h-3.4c-0.2,0-0.3,0.2-0.4,0.4v8.6c0,1.4-0.7,2.1-2.2,2.1
			c-1.6,0-2.4-1-2.4-2.9v-7.7c0-0.2-0.2-0.3-0.4-0.4h-3.3c-0.2,0-0.3,0.2-0.4,0.4v8.8c0,3.1,1.8,4.8,4.9,4.8c0.9,0,1.9-0.2,2.7-0.5
			c0.1,0,0.3-0.1,0.7-0.3c0.2-0.1,0.4-0.1,0.5-0.1h0.1v0.3c0,0.2,0.2,0.3,0.3,0.4h3.1c0.2,0,0.3-0.2,0.3-0.4v-13
			C32.6,55.6,32.4,55.4,32.2,55.4z M34.4,34.8h-3.5v-3c0-0.2-0.1-0.3-0.3-0.3h-0.8c-0.2,0-0.3,0.1-0.3,0.3v3h-1.4
			c-0.2,0-0.3,0.1-0.3,0.3v0.4c0,0,0,0,0,0c0,0.2,0.1,0.3,0.3,0.3h1.4v7.9c0,0.2,0,0.4,0,0.5c0.1,1.5,1.5,2.6,2.9,2.4
			c1.4,0,2.3-0.3,2.3-0.8v-0.3c0-0.2-0.1-0.3-0.2-0.3l-0.2,0.1c-0.5,0.2-1,0.3-1.5,0.3c-0.1,0-0.3,0-0.4,0c-0.9-0.1-1.6-1-1.4-1.9
			v-8h3.5c0.2,0,0.3-0.1,0.3-0.3v-0.4C34.7,34.9,34.5,34.8,34.4,34.8z M44.3,55.4h-0.2l-0.7,0c-0.8,0-1.5,0.2-2.2,0.5
			c-0.3,0.2-0.5,0.2-0.8,0.2h-0.1v-0.4c0-0.2-0.2-0.3-0.3-0.4h-3.1c-0.2,0-0.3,0.2-0.3,0.4v13c0,0.2,0.2,0.3,0.3,0.3l3.3,0
			c0.2,0,0.3-0.2,0.4-0.4v-8.3c0-1.5,0.5-2,2.1-2c0.7,0,1.4,0.1,2.1,0.3l0.3,0.1c0.3,0,0.4-0.2,0.4-0.6v-2
			C45.5,55.6,45.2,55.4,44.3,55.4z M37.5,32.2c0.6,0,1-0.4,1-1s-0.4-1-1-1s-1,0.4-1,1S37,32.2,37.5,32.2z M37.9,34.8h-0.8
			c-0.2,0-0.3,0.1-0.3,0.3v11.1c0,0.2,0.1,0.3,0.3,0.3h0.8c0.2,0,0.3-0.1,0.3-0.3V35.1C38.2,34.9,38.1,34.8,37.9,34.8z"/>
	</g>
</g>
</svg>
